<mxfile host="app.diagrams.net" modified="2023-05-28T07:12:12.536Z" agent="Mozilla/5.0 (X11; Linux x86_64; rv:109.0) Gecko/20100101 Firefox/112.0" etag="vspA3n72_0oXSurRkOf7" version="21.3.4" type="device">
  <diagram name="Page-1" id="3EWHXm--91mZoINVdt7k">
    <mxGraphModel dx="792" dy="800" grid="1" gridSize="10" guides="1" tooltips="1" connect="1" arrows="1" fold="1" page="1" pageScale="1" pageWidth="850" pageHeight="1100" math="0" shadow="0">
      <root>
        <mxCell id="0" />
        <mxCell id="1" parent="0" />
        <mxCell id="4dwq4YejsQgadZ0Mm-On-6" value="" style="rounded=0;whiteSpace=wrap;html=1;strokeColor=#666666;fillColor=#f5f5f5;fontColor=#333333;movable=0;resizable=0;rotatable=0;deletable=0;editable=0;locked=1;connectable=0;" parent="1" vertex="1">
          <mxGeometry x="510" y="70" width="910" height="590" as="geometry" />
        </mxCell>
        <mxCell id="4dwq4YejsQgadZ0Mm-On-5" value="" style="rounded=0;whiteSpace=wrap;html=1;strokeColor=#666666;fillColor=#f5f5f5;fontColor=#333333;" parent="1" vertex="1">
          <mxGeometry x="50" y="70" width="440" height="490" as="geometry" />
        </mxCell>
        <mxCell id="UMF83Tj327hu3HLDuz1h-2" value="&lt;p style=&quot;margin: 4px 0px 0px; text-align: center; font-size: 14px;&quot;&gt;&lt;font style=&quot;font-size: 14px;&quot;&gt;&lt;b style=&quot;font-size: 14px;&quot;&gt;Game&lt;/b&gt;&lt;/font&gt;&lt;/p&gt;&lt;hr style=&quot;font-size: 14px;&quot;&gt;&lt;div&gt;&lt;font style=&quot;font-size: 14px;&quot;&gt;...attributes&lt;/font&gt;&lt;/div&gt;&lt;div&gt;&lt;font style=&quot;font-size: 14px;&quot;&gt;- pillAndItemLocations: &lt;/font&gt;&lt;font style=&quot;font-size: 14px;&quot;&gt;ArrayList&amp;lt;Location&amp;gt;&lt;/font&gt;&lt;br&gt;&lt;font style=&quot;font-size: 14px;&quot;&gt;- iceCubes: &lt;/font&gt;&lt;font style=&quot;font-size: 14px;&quot;&gt;ArrayList&amp;lt;Actor&amp;gt;&lt;/font&gt;&lt;br&gt;&lt;font style=&quot;font-size: 14px;&quot;&gt;- goldPieces: &lt;/font&gt;&lt;font style=&quot;font-size: 14px;&quot;&gt;ArrayList&amp;lt;Actor&amp;gt;&lt;/font&gt;&lt;br&gt;&lt;font style=&quot;font-size: 14px;&quot;&gt;- propertyPillLocations: &lt;/font&gt;&lt;font style=&quot;font-size: 14px;&quot;&gt;ArrayList&amp;lt;Location&amp;gt;&lt;/font&gt;&lt;br&gt;&lt;font style=&quot;font-size: 14px;&quot;&gt;- propertyGoldLocations: &lt;/font&gt;&lt;font style=&quot;font-size: 14px;&quot;&gt;ArrayList&amp;lt;Location&amp;gt;&lt;/font&gt;&lt;/div&gt;&lt;hr style=&quot;font-size: 14px;&quot;&gt;&lt;div&gt;... methods&lt;/div&gt;&lt;div&gt;+ setupPillsAndItemsLocations()&lt;/div&gt;&lt;div&gt;- drawGrid(bg: GGBackground)&lt;br&gt;&lt;/div&gt;" style="verticalAlign=top;align=left;overflow=fill;fontSize=14;fontFamily=Roboto Mono;html=1;whiteSpace=wrap;fontSource=https%3A%2F%2Ffonts.googleapis.com%2Fcss%3Ffamily%3DRoboto%2BMono;" parent="1" vertex="1">
          <mxGeometry x="60" y="110" width="420" height="210" as="geometry" />
        </mxCell>
        <mxCell id="4dwq4YejsQgadZ0Mm-On-1" style="edgeStyle=orthogonalEdgeStyle;rounded=0;orthogonalLoop=1;jettySize=auto;html=1;entryX=0.661;entryY=-0.006;entryDx=0;entryDy=0;entryPerimeter=0;startArrow=open;startFill=0;endArrow=none;endFill=0;fontSize=14;fontFamily=Roboto Mono;fontSource=https%3A%2F%2Ffonts.googleapis.com%2Fcss%3Ffamily%3DRoboto%2BMono;" parent="1" source="UMF83Tj327hu3HLDuz1h-4" target="UMF83Tj327hu3HLDuz1h-4" edge="1">
          <mxGeometry relative="1" as="geometry">
            <mxPoint x="900" y="200" as="targetPoint" />
            <Array as="points">
              <mxPoint x="640" y="90" />
              <mxPoint x="710" y="90" />
              <mxPoint x="710" y="130" />
              <mxPoint x="620" y="130" />
              <mxPoint x="620" y="109" />
            </Array>
          </mxGeometry>
        </mxCell>
        <mxCell id="Rx_yjXkieRfEPGiSi-9z-6" style="rounded=0;orthogonalLoop=1;jettySize=auto;html=1;entryX=0.227;entryY=-0.007;entryDx=0;entryDy=0;entryPerimeter=0;endArrow=open;endFill=0;edgeStyle=orthogonalEdgeStyle;" edge="1" parent="1" source="UMF83Tj327hu3HLDuz1h-4" target="Rx_yjXkieRfEPGiSi-9z-2">
          <mxGeometry relative="1" as="geometry">
            <Array as="points">
              <mxPoint x="590" y="240" />
            </Array>
          </mxGeometry>
        </mxCell>
        <mxCell id="UMF83Tj327hu3HLDuz1h-4" value="&lt;p style=&quot;margin: 4px 0px 0px; text-align: center; font-size: 14px;&quot;&gt;&lt;font style=&quot;font-size: 14px;&quot;&gt;&lt;b style=&quot;font-size: 14px;&quot;&gt;Game&lt;/b&gt;&lt;/font&gt;&lt;/p&gt;&lt;hr style=&quot;font-size: 14px;&quot;&gt;&lt;p style=&quot;margin: 0px 0px 0px 4px; font-size: 14px;&quot;&gt;&lt;font style=&quot;font-size: 14px;&quot;&gt;... attributes&lt;br&gt;&lt;/font&gt;&lt;/p&gt;&lt;hr style=&quot;font-size: 14px;&quot;&gt;... methods&lt;p style=&quot;margin: 0px 0px 0px 4px; font-size: 14px;&quot;&gt;&lt;font style=&quot;font-size: 14px;&quot;&gt;&lt;u style=&quot;font-size: 14px;&quot;&gt;&lt;br style=&quot;font-size: 14px;&quot;&gt;&lt;/u&gt;&lt;/font&gt;&lt;/p&gt;" style="verticalAlign=top;align=left;overflow=fill;fontSize=14;fontFamily=Roboto Mono;html=1;whiteSpace=wrap;fontSource=https%3A%2F%2Ffonts.googleapis.com%2Fcss%3Ffamily%3DRoboto%2BMono;" parent="1" vertex="1">
          <mxGeometry x="520" y="110" width="170" height="100" as="geometry" />
        </mxCell>
        <mxCell id="4dwq4YejsQgadZ0Mm-On-2" value="0..1" style="text;html=1;strokeColor=none;fillColor=none;align=center;verticalAlign=middle;whiteSpace=wrap;rounded=0;fontSize=14;fontFamily=Roboto Mono;fontSource=https%3A%2F%2Ffonts.googleapis.com%2Fcss%3Ffamily%3DRoboto%2BMono;" parent="1" vertex="1">
          <mxGeometry x="710" y="90" width="60" height="30" as="geometry" />
        </mxCell>
        <mxCell id="4dwq4YejsQgadZ0Mm-On-3" value="Before" style="text;html=1;strokeColor=none;fillColor=none;align=center;verticalAlign=middle;whiteSpace=wrap;rounded=0;fontFamily=Roboto Mono;fontSource=https%3A%2F%2Ffonts.googleapis.com%2Fcss%3Ffamily%3DRoboto%2BMono;fontStyle=1;fontSize=16;" parent="1" vertex="1">
          <mxGeometry x="60" y="70" width="60" height="30" as="geometry" />
        </mxCell>
        <mxCell id="4dwq4YejsQgadZ0Mm-On-4" value="After" style="text;html=1;strokeColor=none;fillColor=none;align=center;verticalAlign=middle;whiteSpace=wrap;rounded=0;fontFamily=Roboto Mono;fontSource=https%3A%2F%2Ffonts.googleapis.com%2Fcss%3Ffamily%3DRoboto%2BMono;fontStyle=1;fontSize=16;" parent="1" vertex="1">
          <mxGeometry x="520" y="70" width="60" height="30" as="geometry" />
        </mxCell>
        <mxCell id="Rx_yjXkieRfEPGiSi-9z-1" value="&lt;p style=&quot;margin: 4px 0px 0px; text-align: center; font-size: 14px;&quot;&gt;&lt;font style=&quot;font-size: 14px;&quot;&gt;&lt;b style=&quot;font-size: 14px;&quot;&gt;PacManGameGrid&lt;/b&gt;&lt;/font&gt;&lt;/p&gt;&lt;hr style=&quot;font-size: 14px;&quot;&gt;&lt;p style=&quot;margin: 0px 0px 0px 4px; font-size: 14px;&quot;&gt;&lt;font style=&quot;font-size: 14px;&quot;&gt;... attributes&lt;br&gt;&lt;/font&gt;&lt;/p&gt;&lt;p style=&quot;margin: 0px 0px 0px 4px; font-size: 14px;&quot;&gt;-&lt;font style=&quot;font-size: 14px;&quot;&gt; nbHorzCells: &lt;/font&gt;&lt;font style=&quot;font-size: 14px;&quot;&gt;int&lt;/font&gt;&lt;br&gt;&lt;font style=&quot;font-size: 14px;&quot;&gt;- nbVertCells: &lt;/font&gt;&lt;font style=&quot;font-size: 14px;&quot;&gt;int&lt;/font&gt;&lt;/p&gt;&lt;hr style=&quot;font-size: 14px;&quot;&gt;... methods&lt;br&gt;&lt;p style=&quot;margin: 0px 0px 0px 4px; font-size: 14px;&quot;&gt;&lt;font style=&quot;font-size: 14px;&quot;&gt;&lt;span style=&quot;font-size: 14px;&quot;&gt;+ draw()&lt;/span&gt;&lt;span style=&quot;font-size: 14px;&quot;&gt;&lt;/span&gt;&lt;u style=&quot;font-size: 14px;&quot;&gt;&lt;br style=&quot;font-size: 14px;&quot;&gt;&lt;/u&gt;&lt;/font&gt;&lt;/p&gt;&lt;p style=&quot;margin: 0px 0px 0px 4px; font-size: 14px;&quot;&gt;&lt;font style=&quot;font-size: 14px;&quot;&gt;&lt;u style=&quot;font-size: 14px;&quot;&gt;&lt;br style=&quot;font-size: 14px;&quot;&gt;&lt;/u&gt;&lt;/font&gt;&lt;/p&gt;" style="verticalAlign=top;align=left;overflow=fill;fontSize=14;fontFamily=Roboto Mono;html=1;whiteSpace=wrap;fontSource=https%3A%2F%2Ffonts.googleapis.com%2Fcss%3Ffamily%3DRoboto%2BMono;" vertex="1" parent="1">
          <mxGeometry x="1095" y="85" width="190" height="150" as="geometry" />
        </mxCell>
        <mxCell id="Rx_yjXkieRfEPGiSi-9z-2" value="&lt;p style=&quot;margin: 4px 0px 0px; text-align: center; font-size: 14px;&quot;&gt;&lt;font style=&quot;font-size: 14px;&quot;&gt;&lt;b style=&quot;font-size: 14px;&quot;&gt;PillFacade&lt;/b&gt;&lt;/font&gt;&lt;/p&gt;&lt;hr style=&quot;font-size: 14px;&quot;&gt;&lt;p style=&quot;margin: 0px 0px 0px 4px; font-size: 14px;&quot;&gt;&lt;font style=&quot;font-size: 14px;&quot;&gt;&lt;br&gt;&lt;/font&gt;&lt;/p&gt;&lt;hr style=&quot;font-size: 14px;&quot;&gt;... methods&lt;br&gt;&lt;p style=&quot;margin: 0px 0px 0px 4px; font-size: 14px;&quot;&gt;&lt;font style=&quot;font-size: 14px;&quot;&gt;&lt;span style=&quot;font-size: 14px;&quot;&gt;+ fillCell(a: int, bg: GGBackground, location: Location)&lt;/span&gt;&lt;span style=&quot;font-size: 14px;&quot;&gt;&lt;/span&gt;&lt;u style=&quot;font-size: 14px;&quot;&gt;&lt;br style=&quot;font-size: 14px;&quot;&gt;&lt;/u&gt;&lt;/font&gt;&lt;/p&gt;&lt;p style=&quot;margin: 0px 0px 0px 4px; font-size: 14px;&quot;&gt;&lt;font style=&quot;font-size: 14px;&quot;&gt;&lt;u style=&quot;font-size: 14px;&quot;&gt;&lt;br style=&quot;font-size: 14px;&quot;&gt;&lt;/u&gt;&lt;/font&gt;&lt;/p&gt;" style="verticalAlign=top;align=left;overflow=fill;fontSize=14;fontFamily=Roboto Mono;html=1;whiteSpace=wrap;fontSource=https%3A%2F%2Ffonts.googleapis.com%2Fcss%3Ffamily%3DRoboto%2BMono;" vertex="1" parent="1">
          <mxGeometry x="520" y="260" width="310" height="140" as="geometry" />
        </mxCell>
        <mxCell id="Rx_yjXkieRfEPGiSi-9z-5" style="edgeStyle=orthogonalEdgeStyle;rounded=0;orthogonalLoop=1;jettySize=auto;html=1;dashed=1;endArrow=open;endFill=0;" edge="1" parent="1" source="Rx_yjXkieRfEPGiSi-9z-4" target="Rx_yjXkieRfEPGiSi-9z-1">
          <mxGeometry relative="1" as="geometry" />
        </mxCell>
        <mxCell id="Rx_yjXkieRfEPGiSi-9z-4" value="&lt;p style=&quot;margin: 4px 0px 0px; text-align: center; font-size: 14px;&quot;&gt;&lt;font style=&quot;font-size: 14px;&quot;&gt;&lt;b style=&quot;font-size: 14px;&quot;&gt;AbstractPills&lt;/b&gt;&lt;/font&gt;&lt;/p&gt;&lt;hr style=&quot;font-size: 14px;&quot;&gt;&lt;font style=&quot;font-size: 14px;&quot;&gt;- locations: &lt;/font&gt;&lt;font style=&quot;font-size: 14px;&quot;&gt;List&amp;lt;Location&amp;gt;&lt;/font&gt;&lt;p style=&quot;margin: 0px 0px 0px 4px; font-size: 14px;&quot;&gt;&lt;font style=&quot;font-size: 14px;&quot;&gt;- actorPieces: &lt;/font&gt;&lt;font style=&quot;font-size: 14px;&quot;&gt;Optional&amp;lt;List&amp;lt;Actor&amp;gt;&amp;gt;&lt;/font&gt;&lt;/p&gt;&lt;hr style=&quot;font-size: 14px;&quot;&gt;... methods&lt;br&gt;&lt;p style=&quot;margin: 0px 0px 0px 4px; font-size: 14px;&quot;&gt;&lt;font style=&quot;font-size: 14px;&quot;&gt;+ putPiece(&lt;/font&gt;bg: GGBackground, location&lt;font style=&quot;font-size: 14px;&quot;&gt;: &lt;/font&gt;Location&lt;font style=&quot;font-size: 14px;&quot;&gt;&lt;span style=&quot;font-size: 14px;&quot;&gt;)&lt;/span&gt;&lt;span style=&quot;font-size: 14px;&quot;&gt;&lt;/span&gt;&lt;u style=&quot;font-size: 14px;&quot;&gt;&lt;br&gt;&lt;/u&gt;&lt;/font&gt;&lt;/p&gt;&lt;p style=&quot;margin: 0px 0px 0px 4px; font-size: 14px;&quot;&gt;&lt;font style=&quot;font-size: 14px;&quot;&gt;&lt;span style=&quot;font-size: 14px;&quot;&gt;# getKey(): String&lt;/span&gt;&lt;/font&gt;&lt;/p&gt;&lt;p style=&quot;margin: 0px 0px 0px 4px; font-size: 14px;&quot;&gt;&lt;font style=&quot;font-size: 14px;&quot;&gt;&lt;span style=&quot;font-size: 14px;&quot;&gt;# getPaintColor(): Color&lt;/span&gt;&lt;u style=&quot;font-size: 14px;&quot;&gt;&lt;br style=&quot;font-size: 14px;&quot;&gt;&lt;/u&gt;&lt;/font&gt;&lt;/p&gt;&lt;p style=&quot;margin: 0px 0px 0px 4px; font-size: 14px;&quot;&gt;&lt;font style=&quot;font-size: 14px;&quot;&gt;&lt;u style=&quot;font-size: 14px;&quot;&gt;&lt;br style=&quot;font-size: 14px;&quot;&gt;&lt;/u&gt;&lt;/font&gt;&lt;/p&gt;" style="verticalAlign=top;align=left;overflow=fill;fontSize=14;fontFamily=Roboto Mono;html=1;whiteSpace=wrap;fontSource=https%3A%2F%2Ffonts.googleapis.com%2Fcss%3Ffamily%3DRoboto%2BMono;" vertex="1" parent="1">
          <mxGeometry x="980" y="290" width="420" height="180" as="geometry" />
        </mxCell>
        <mxCell id="Rx_yjXkieRfEPGiSi-9z-7" style="edgeStyle=orthogonalEdgeStyle;rounded=0;orthogonalLoop=1;jettySize=auto;html=1;endArrow=open;endFill=0;" edge="1" parent="1" source="Rx_yjXkieRfEPGiSi-9z-2" target="Rx_yjXkieRfEPGiSi-9z-4">
          <mxGeometry relative="1" as="geometry">
            <mxPoint x="615" y="220" as="sourcePoint" />
            <mxPoint x="616" y="269" as="targetPoint" />
            <Array as="points">
              <mxPoint x="720" y="350" />
              <mxPoint x="720" y="350" />
            </Array>
          </mxGeometry>
        </mxCell>
        <mxCell id="Rx_yjXkieRfEPGiSi-9z-8" value="1" style="text;html=1;strokeColor=none;fillColor=none;align=center;verticalAlign=middle;whiteSpace=wrap;rounded=0;fontFamily=Roboto Mono;fontSource=https%3A%2F%2Ffonts.googleapis.com%2Fcss%3Ffamily%3DRoboto%2BMono;" vertex="1" parent="1">
          <mxGeometry x="830" y="340" width="20" height="30" as="geometry" />
        </mxCell>
        <mxCell id="Rx_yjXkieRfEPGiSi-9z-9" value="3" style="text;html=1;strokeColor=none;fillColor=none;align=center;verticalAlign=middle;whiteSpace=wrap;rounded=0;fontFamily=Roboto Mono;fontSource=https%3A%2F%2Ffonts.googleapis.com%2Fcss%3Ffamily%3DRoboto%2BMono;" vertex="1" parent="1">
          <mxGeometry x="960" y="340" width="20" height="30" as="geometry" />
        </mxCell>
        <mxCell id="Rx_yjXkieRfEPGiSi-9z-11" style="edgeStyle=orthogonalEdgeStyle;rounded=0;orthogonalLoop=1;jettySize=auto;html=1;endArrow=block;endFill=0;dashed=1;" edge="1" parent="1" source="Rx_yjXkieRfEPGiSi-9z-10" target="Rx_yjXkieRfEPGiSi-9z-4">
          <mxGeometry relative="1" as="geometry">
            <Array as="points">
              <mxPoint x="840" y="460" />
            </Array>
          </mxGeometry>
        </mxCell>
        <mxCell id="Rx_yjXkieRfEPGiSi-9z-10" value="&lt;p style=&quot;margin: 4px 0px 0px; text-align: center; font-size: 14px;&quot;&gt;&lt;font style=&quot;font-size: 14px;&quot;&gt;&lt;b style=&quot;font-size: 14px;&quot;&gt;IcePills&lt;/b&gt;&lt;/font&gt;&lt;/p&gt;&lt;hr style=&quot;font-size: 14px;&quot;&gt;&lt;p style=&quot;margin: 0px 0px 0px 4px; font-size: 14px;&quot;&gt;&lt;font style=&quot;font-size: 14px;&quot;&gt;... attributes&lt;br&gt;&lt;/font&gt;&lt;/p&gt;&lt;hr style=&quot;font-size: 14px;&quot;&gt;... methods&lt;br&gt;&lt;p style=&quot;margin: 0px 0px 0px 4px; font-size: 14px;&quot;&gt;&lt;font style=&quot;font-size: 14px;&quot;&gt;# getKey(): String&lt;/font&gt;&lt;font style=&quot;font-size: 14px;&quot;&gt;&lt;span style=&quot;font-size: 14px;&quot;&gt;&lt;/span&gt;&lt;u style=&quot;font-size: 14px;&quot;&gt;&lt;br style=&quot;font-size: 14px;&quot;&gt;&lt;/u&gt;&lt;/font&gt;&lt;/p&gt;&lt;p style=&quot;margin: 0px 0px 0px 4px; font-size: 14px;&quot;&gt;&lt;font style=&quot;font-size: 14px;&quot;&gt;# getPaintColor(): Color&lt;u style=&quot;font-size: 14px;&quot;&gt;&lt;br style=&quot;font-size: 14px;&quot;&gt;&lt;/u&gt;&lt;/font&gt;&lt;/p&gt;" style="verticalAlign=top;align=left;overflow=fill;fontSize=14;fontFamily=Roboto Mono;html=1;whiteSpace=wrap;fontSource=https%3A%2F%2Ffonts.googleapis.com%2Fcss%3Ffamily%3DRoboto%2BMono;" vertex="1" parent="1">
          <mxGeometry x="680" y="520" width="220" height="130" as="geometry" />
        </mxCell>
        <mxCell id="Rx_yjXkieRfEPGiSi-9z-12" value="&lt;p style=&quot;margin: 4px 0px 0px; text-align: center; font-size: 14px;&quot;&gt;&lt;font style=&quot;font-size: 14px;&quot;&gt;&lt;b style=&quot;font-size: 14px;&quot;&gt;GoldPills&lt;/b&gt;&lt;/font&gt;&lt;/p&gt;&lt;hr style=&quot;font-size: 14px;&quot;&gt;&lt;p style=&quot;margin: 0px 0px 0px 4px; font-size: 14px;&quot;&gt;&lt;font style=&quot;font-size: 14px;&quot;&gt;... attributes&lt;br&gt;&lt;/font&gt;&lt;/p&gt;&lt;hr style=&quot;font-size: 14px;&quot;&gt;... methods&lt;br&gt;&lt;p style=&quot;margin: 0px 0px 0px 4px; font-size: 14px;&quot;&gt;&lt;font style=&quot;font-size: 14px;&quot;&gt;# getKey(): String&lt;/font&gt;&lt;font style=&quot;font-size: 14px;&quot;&gt;&lt;span style=&quot;font-size: 14px;&quot;&gt;&lt;/span&gt;&lt;u style=&quot;font-size: 14px;&quot;&gt;&lt;br style=&quot;font-size: 14px;&quot;&gt;&lt;/u&gt;&lt;/font&gt;&lt;/p&gt;&lt;p style=&quot;margin: 0px 0px 0px 4px; font-size: 14px;&quot;&gt;&lt;font style=&quot;font-size: 14px;&quot;&gt;# getPaintColor(): Color&lt;u style=&quot;font-size: 14px;&quot;&gt;&lt;br style=&quot;font-size: 14px;&quot;&gt;&lt;/u&gt;&lt;/font&gt;&lt;/p&gt;" style="verticalAlign=top;align=left;overflow=fill;fontSize=14;fontFamily=Roboto Mono;html=1;whiteSpace=wrap;fontSource=https%3A%2F%2Ffonts.googleapis.com%2Fcss%3Ffamily%3DRoboto%2BMono;" vertex="1" parent="1">
          <mxGeometry x="930" y="520" width="220" height="130" as="geometry" />
        </mxCell>
        <mxCell id="Rx_yjXkieRfEPGiSi-9z-13" style="edgeStyle=orthogonalEdgeStyle;rounded=0;orthogonalLoop=1;jettySize=auto;html=1;endArrow=block;endFill=0;dashed=1;" edge="1" parent="1" source="Rx_yjXkieRfEPGiSi-9z-12" target="Rx_yjXkieRfEPGiSi-9z-4">
          <mxGeometry relative="1" as="geometry">
            <mxPoint x="1020" y="540" as="sourcePoint" />
            <mxPoint x="1020" y="480" as="targetPoint" />
            <Array as="points">
              <mxPoint x="1090" y="550" />
              <mxPoint x="1090" y="550" />
            </Array>
          </mxGeometry>
        </mxCell>
        <mxCell id="Rx_yjXkieRfEPGiSi-9z-14" value="&lt;p style=&quot;margin: 4px 0px 0px; text-align: center; font-size: 14px;&quot;&gt;&lt;font style=&quot;font-size: 14px;&quot;&gt;&lt;b style=&quot;font-size: 14px;&quot;&gt;SimplePills&lt;/b&gt;&lt;/font&gt;&lt;/p&gt;&lt;hr style=&quot;font-size: 14px;&quot;&gt;&lt;p style=&quot;margin: 0px 0px 0px 4px; font-size: 14px;&quot;&gt;&lt;font style=&quot;font-size: 14px;&quot;&gt;... attributes&lt;br&gt;&lt;/font&gt;&lt;/p&gt;&lt;hr style=&quot;font-size: 14px;&quot;&gt;... methods&lt;br&gt;&lt;p style=&quot;margin: 0px 0px 0px 4px; font-size: 14px;&quot;&gt;#&lt;font style=&quot;font-size: 14px;&quot;&gt; getKey(): String&lt;/font&gt;&lt;font style=&quot;font-size: 14px;&quot;&gt;&lt;span style=&quot;font-size: 14px;&quot;&gt;&lt;/span&gt;&lt;u style=&quot;font-size: 14px;&quot;&gt;&lt;br style=&quot;font-size: 14px;&quot;&gt;&lt;/u&gt;&lt;/font&gt;&lt;/p&gt;&lt;p style=&quot;margin: 0px 0px 0px 4px; font-size: 14px;&quot;&gt;&lt;font style=&quot;font-size: 14px;&quot;&gt;# getPaintColor(): Color&lt;u style=&quot;font-size: 14px;&quot;&gt;&lt;br style=&quot;font-size: 14px;&quot;&gt;&lt;/u&gt;&lt;/font&gt;&lt;/p&gt;" style="verticalAlign=top;align=left;overflow=fill;fontSize=14;fontFamily=Roboto Mono;html=1;whiteSpace=wrap;fontSource=https%3A%2F%2Ffonts.googleapis.com%2Fcss%3Ffamily%3DRoboto%2BMono;" vertex="1" parent="1">
          <mxGeometry x="1180" y="520" width="220" height="130" as="geometry" />
        </mxCell>
        <mxCell id="Rx_yjXkieRfEPGiSi-9z-15" style="edgeStyle=orthogonalEdgeStyle;rounded=0;orthogonalLoop=1;jettySize=auto;html=1;endArrow=block;endFill=0;dashed=1;" edge="1" parent="1" source="Rx_yjXkieRfEPGiSi-9z-14" target="Rx_yjXkieRfEPGiSi-9z-4">
          <mxGeometry relative="1" as="geometry">
            <mxPoint x="1270" y="540" as="sourcePoint" />
            <mxPoint x="1200" y="480" as="targetPoint" />
            <Array as="points">
              <mxPoint x="1280" y="500" />
              <mxPoint x="1280" y="500" />
            </Array>
          </mxGeometry>
        </mxCell>
        <mxCell id="Rx_yjXkieRfEPGiSi-9z-16" style="rounded=0;orthogonalLoop=1;jettySize=auto;html=1;endArrow=open;endFill=0;edgeStyle=orthogonalEdgeStyle;" edge="1" parent="1" source="UMF83Tj327hu3HLDuz1h-4" target="Rx_yjXkieRfEPGiSi-9z-1">
          <mxGeometry relative="1" as="geometry">
            <mxPoint x="616" y="220" as="sourcePoint" />
            <mxPoint x="616" y="268" as="targetPoint" />
            <Array as="points">
              <mxPoint x="900" y="160" />
              <mxPoint x="900" y="160" />
            </Array>
          </mxGeometry>
        </mxCell>
        <mxCell id="Rx_yjXkieRfEPGiSi-9z-17" value="&lt;p style=&quot;margin: 4px 0px 0px; text-align: center; font-size: 14px;&quot;&gt;&lt;font style=&quot;font-size: 14px;&quot;&gt;&lt;b style=&quot;font-size: 14px;&quot;&gt;PacManGameGrid&lt;/b&gt;&lt;/font&gt;&lt;/p&gt;&lt;hr style=&quot;font-size: 14px;&quot;&gt;&lt;p style=&quot;margin: 0px 0px 0px 4px; font-size: 14px;&quot;&gt;&lt;font style=&quot;font-size: 14px;&quot;&gt;... attributes&lt;br&gt;&lt;/font&gt;&lt;/p&gt;&lt;p style=&quot;margin: 0px 0px 0px 4px; font-size: 14px;&quot;&gt;-&lt;font style=&quot;font-size: 14px;&quot;&gt; nbHorzCells: &lt;/font&gt;&lt;font style=&quot;font-size: 14px;&quot;&gt;int&lt;/font&gt;&lt;br&gt;&lt;font style=&quot;font-size: 14px;&quot;&gt;- nbVertCells: &lt;/font&gt;&lt;font style=&quot;font-size: 14px;&quot;&gt;int&lt;/font&gt;&lt;/p&gt;&lt;hr style=&quot;font-size: 14px;&quot;&gt;... methods" style="verticalAlign=top;align=left;overflow=fill;fontSize=14;fontFamily=Roboto Mono;html=1;whiteSpace=wrap;fontSource=https%3A%2F%2Ffonts.googleapis.com%2Fcss%3Ffamily%3DRoboto%2BMono;" vertex="1" parent="1">
          <mxGeometry x="175" y="420" width="190" height="130" as="geometry" />
        </mxCell>
        <mxCell id="Rx_yjXkieRfEPGiSi-9z-18" style="rounded=0;orthogonalLoop=1;jettySize=auto;html=1;endArrow=open;endFill=0;" edge="1" parent="1" source="UMF83Tj327hu3HLDuz1h-2" target="Rx_yjXkieRfEPGiSi-9z-17">
          <mxGeometry relative="1" as="geometry">
            <mxPoint x="616" y="220" as="sourcePoint" />
            <mxPoint x="616" y="268" as="targetPoint" />
          </mxGeometry>
        </mxCell>
        <mxCell id="Rx_yjXkieRfEPGiSi-9z-19" value="1" style="text;html=1;strokeColor=none;fillColor=none;align=center;verticalAlign=middle;whiteSpace=wrap;rounded=0;fontFamily=Roboto Mono;fontSource=https%3A%2F%2Ffonts.googleapis.com%2Fcss%3Ffamily%3DRoboto%2BMono;" vertex="1" parent="1">
          <mxGeometry x="690" y="160" width="20" height="30" as="geometry" />
        </mxCell>
        <mxCell id="Rx_yjXkieRfEPGiSi-9z-20" value="1" style="text;html=1;strokeColor=none;fillColor=none;align=center;verticalAlign=middle;whiteSpace=wrap;rounded=0;fontFamily=Roboto Mono;fontSource=https%3A%2F%2Ffonts.googleapis.com%2Fcss%3Ffamily%3DRoboto%2BMono;" vertex="1" parent="1">
          <mxGeometry x="1075" y="160" width="20" height="30" as="geometry" />
        </mxCell>
      </root>
    </mxGraphModel>
  </diagram>
</mxfile>
